#Comment line ignore any data following # character 
#Hierarchical Translation and Rotation (.htr) file 
[Header]	
#Header keywords are followed by a single value 
FileType HTR		#Single word string
DataType HTRS		#Translation followed by rotation and scale data
FileVersion 1		#integer
NumSegments 64		#integer
NumFrames 2		#integer
DataFrameRate 30		#integer, data frame rate in this file
EulerRotationOrder ZYX
CalibrationUnits mm
RotationUnits Degrees
GlobalAxisofGravity Y
BoneLengthAxis Y
ScaleFactor 1.00
[SegmentNames&Hierarchy]
#CHILD	PARENT
Pinger_Root GLOBAL
Pelvis Pinger_Root
L_Hip Pelvis
R_Hip Pelvis
Rear_Leg01 Pelvis
Spine1 Pelvis
L_Leg01 L_Hip
L_Leg02 L_Leg01
L_Leg03 L_Leg02
L_Foot L_Leg03
L_Toe1_01 L_Foot
L_Toe2_01 L_Foot
L_Toe3_01 L_Foot
planeAlignerLeft L_Foot
L_Toe1_02 L_Toe1_01
L_Toe1_03 L_Toe1_02
L_Toe2_02 L_Toe2_01
L_Toe2_03 L_Toe2_02
L_Toe3_02 L_Toe3_01
L_Toe3_03 L_Toe3_02
planeLockWeightLeft planeAlignerLeft
R_Leg01 R_Hip
R_Leg02 R_Leg01
R_Leg03 R_Leg02
R_Foot R_Leg03
planeAlignerRight R_Foot
R_Toe1_01 R_Foot
R_Toe2_01 R_Foot
R_Toe3_01 R_Foot
planeLockWeightRight planeAlignerRight
R_Toe1_02 R_Toe1_01
R_Toe1_03 R_Toe1_02
R_Toe2_02 R_Toe2_01
R_Toe2_03 R_Toe2_02
R_Toe3_02 R_Toe3_01
R_Toe3_03 R_Toe3_02
Rear_Leg02 Rear_Leg01
Rear_Leg03 Rear_Leg02
Rear_Leg04 Rear_Leg03
Rear_Foot Rear_Leg04
planeAlignerCenter Rear_Foot
Rear_Toe1_01 Rear_Foot
Rear_Toe2_01 Rear_Foot
Rear_Toe3_01 Rear_Foot
planeLockWeightCenter planeAlignerCenter
Rear_Toe1_02 Rear_Toe1_01
Rear_Toe1_03 Rear_Toe1_02
Rear_Toe2_02 Rear_Toe2_01
Rear_Toe2_03 Rear_Toe2_02
Rear_Toe3_02 Rear_Toe3_01
Rear_Toe3_03 Rear_Toe3_02
Back_Bone Spine1
Head Spine1
Motor_Bone Back_Bone
Ping_Mechanism Back_Bone
BN_LookIK Head
bottomMouth Head
L_Mouth01 Head
L_mouthFront Head
mouthGun Head
R_Mouth01 Head
R_mouthFront Head
TopMouth Head
weapon_bone Head
[BasePosition]
#SegmentName Tx, Ty, Tz, Rx, Ry, Rz, BoneLength
Pinger_Root 0.000000 0.000000 0.000000 -90.000000 0.000000 0.000000 10.000000 
Pelvis 0.000000 0.000000 0.000000 0.000000 0.000000 0.000000 10.000000 
L_Hip 0.000000 0.000000 0.000000 0.000000 0.000000 0.000000 10.000000 
R_Hip 0.000000 0.000000 0.000000 0.000000 0.000000 0.000000 10.000000 
Rear_Leg01 0.000000 0.000000 0.000000 0.000000 0.000000 0.000000 10.000000 
Spine1 0.000000 0.000000 0.000000 0.000000 0.000000 0.000000 10.000000 
L_Leg01 0.000000 0.000000 0.000000 0.000000 0.000000 0.000000 10.000000 
L_Leg02 0.000000 0.000000 0.000000 0.000000 0.000000 0.000000 10.000000 
L_Leg03 0.000000 0.000000 0.000000 0.000000 0.000000 0.000000 10.000000 
L_Foot 0.000000 0.000000 0.000000 0.000000 0.000000 0.000000 10.000000 
L_Toe1_01 0.000000 0.000000 0.000000 0.000000 0.000000 0.000000 10.000000 
L_Toe2_01 0.000000 0.000000 0.000000 0.000000 0.000000 0.000000 10.000000 
L_Toe3_01 0.000000 0.000000 0.000000 0.000000 0.000000 0.000000 10.000000 
planeAlignerLeft 0.000000 0.000000 0.000000 0.000000 0.000000 0.000000 10.000000 
L_Toe1_02 0.000000 0.000000 0.000000 0.000000 0.000000 0.000000 10.000000 
L_Toe1_03 0.000000 0.000000 0.000000 0.000000 0.000000 0.000000 10.000000 
L_Toe2_02 0.000000 0.000000 0.000000 0.000000 0.000000 0.000000 10.000000 
L_Toe2_03 0.000000 0.000000 0.000000 0.000000 0.000000 0.000000 10.000000 
L_Toe3_02 0.000000 0.000000 0.000000 0.000000 0.000000 0.000000 10.000000 
L_Toe3_03 0.000000 0.000000 0.000000 0.000000 0.000000 0.000000 10.000000 
planeLockWeightLeft 0.000000 0.000000 0.000000 0.000000 0.000000 0.000000 10.000000 
R_Leg01 0.000000 0.000000 0.000000 0.000000 0.000000 0.000000 10.000000 
R_Leg02 0.000000 0.000000 0.000000 0.000000 0.000000 0.000000 10.000000 
R_Leg03 0.000000 0.000000 0.000000 0.000000 0.000000 0.000000 10.000000 
R_Foot 0.000000 0.000000 0.000000 0.000000 0.000000 0.000000 10.000000 
planeAlignerRight 0.000000 0.000000 0.000000 0.000000 0.000000 0.000000 10.000000 
R_Toe1_01 0.000000 0.000000 0.000000 0.000000 0.000000 0.000000 10.000000 
R_Toe2_01 0.000000 0.000000 0.000000 0.000000 0.000000 0.000000 10.000000 
R_Toe3_01 0.000000 0.000000 0.000000 0.000000 0.000000 0.000000 10.000000 
planeLockWeightRight 0.000000 0.000000 0.000000 0.000000 0.000000 0.000000 10.000000 
R_Toe1_02 0.000000 0.000000 0.000000 0.000000 0.000000 0.000000 10.000000 
R_Toe1_03 0.000000 0.000000 0.000000 0.000000 0.000000 0.000000 10.000000 
R_Toe2_02 0.000000 0.000000 0.000000 0.000000 0.000000 0.000000 10.000000 
R_Toe2_03 0.000000 0.000000 0.000000 0.000000 0.000000 0.000000 10.000000 
R_Toe3_02 0.000000 0.000000 0.000000 0.000000 0.000000 0.000000 10.000000 
R_Toe3_03 0.000000 0.000000 0.000000 0.000000 0.000000 0.000000 10.000000 
Rear_Leg02 0.000000 0.000000 0.000000 0.000000 0.000000 0.000000 10.000000 
Rear_Leg03 0.000000 0.000000 0.000000 0.000000 0.000000 0.000000 10.000000 
Rear_Leg04 0.000000 0.000000 0.000000 0.000000 0.000000 0.000000 10.000000 
Rear_Foot 0.000000 0.000000 0.000000 0.000000 0.000000 0.000000 10.000000 
planeAlignerCenter 0.000000 0.000000 0.000000 0.000000 0.000000 0.000000 10.000000 
Rear_Toe1_01 0.000000 0.000000 0.000000 0.000000 0.000000 0.000000 10.000000 
Rear_Toe2_01 0.000000 0.000000 0.000000 0.000000 0.000000 0.000000 10.000000 
Rear_Toe3_01 0.000000 0.000000 0.000000 0.000000 0.000000 0.000000 10.000000 
planeLockWeightCenter 0.000000 0.000000 0.000000 0.000000 0.000000 0.000000 10.000000 
Rear_Toe1_02 0.000000 0.000000 0.000000 0.000000 0.000000 0.000000 10.000000 
Rear_Toe1_03 0.000000 0.000000 0.000000 0.000000 0.000000 0.000000 10.000000 
Rear_Toe2_02 0.000000 0.000000 0.000000 0.000000 0.000000 0.000000 10.000000 
Rear_Toe2_03 0.000000 0.000000 0.000000 0.000000 0.000000 0.000000 10.000000 
Rear_Toe3_02 0.000000 0.000000 0.000000 0.000000 0.000000 0.000000 10.000000 
Rear_Toe3_03 0.000000 0.000000 0.000000 0.000000 0.000000 0.000000 10.000000 
Back_Bone 0.000000 0.000000 0.000000 0.000000 0.000000 0.000000 10.000000 
Head 0.000000 0.000000 0.000000 0.000000 0.000000 0.000000 10.000000 
Motor_Bone 0.000000 0.000000 0.000000 0.000000 0.000000 0.000000 10.000000 
Ping_Mechanism 0.000000 0.000000 0.000000 0.000000 0.000000 0.000000 10.000000 
BN_LookIK 0.000000 0.000000 0.000000 0.000000 0.000000 0.000000 10.000000 
bottomMouth 0.000000 0.000000 0.000000 0.000000 0.000000 0.000000 10.000000 
L_Mouth01 0.000000 0.000000 0.000000 0.000000 0.000000 0.000000 10.000000 
L_mouthFront 0.000000 0.000000 0.000000 0.000000 0.000000 0.000000 10.000000 
mouthGun 0.000000 0.000000 0.000000 0.000000 0.000000 0.000000 10.000000 
R_Mouth01 0.000000 0.000000 0.000000 0.000000 0.000000 0.000000 10.000000 
R_mouthFront 0.000000 0.000000 0.000000 0.000000 0.000000 0.000000 10.000000 
TopMouth 0.000000 0.000000 0.000000 0.000000 0.000000 0.000000 10.000000 
weapon_bone 0.000000 0.000000 0.000000 0.000000 0.000000 0.000000 10.000000 
#Beginning of Data. Separated by tabs
#Fr	Tx	Ty	Tz	Rx	Ry	Rz	SF
[Pinger_Root]
6 0.000000 0.000000 0.000000 -0.000075 -0.000000 -0.000020 0.000000
7 0.000000 0.000000 0.000000 -0.000075 -0.000000 -0.000020 0.000000
[Pelvis]
6 -105.530807 -181.675751 4341.894531 -103.332680 -67.229416 86.427689 4346.975098
7 -133.444183 -278.921722 4265.339844 -108.644913 -73.446129 92.102875 4276.532227
[L_Hip]
6 5.766392 125.831482 872.656799 160.158691 -45.484905 122.312202 881.701050
7 5.766392 125.831482 872.656799 160.158691 -45.484898 122.312202 881.701050
[R_Hip]
6 5.765438 125.836372 -872.654907 38.087837 49.812698 125.703735 881.699829
7 5.765438 125.836372 -872.654907 38.087841 49.812687 125.703735 881.699829
[Rear_Leg01]
6 -192.298416 -925.602966 -0.001907 175.604416 8.908320 -161.011047 945.367432
7 -192.298416 -925.602966 -0.001907 175.897186 9.170358 -154.820435 945.367432
[Spine1]
6 290.604584 5.007505 0.000477 10.993813 -1.075966 6.793944 290.647736
7 290.604584 5.007505 0.000477 12.391191 -1.167222 9.732635 290.647736
[L_Leg01]
6 761.932007 -0.002384 -0.069261 6.459164 -21.391066 32.272919 761.932068
7 761.932007 -0.002384 -0.069261 11.800748 -23.088150 27.012627 761.932068
[L_Leg02]
6 1441.140503 -0.000954 -0.000715 -0.533727 0.278335 -121.776222 1441.140503
7 1441.140503 -0.000954 -0.000715 -0.540147 0.287121 -121.849823 1441.140503
[L_Leg03]
6 1686.963989 -0.000715 -0.000954 0.043644 -0.010382 98.813683 1686.963989
7 1686.963989 -0.000715 -0.000954 0.043661 -0.010310 98.624664 1686.963989
[L_Foot]
6 3041.570068 -30.715107 11.297464 -2.657215 11.389966 42.519501 3041.746094
7 3041.570068 -30.715107 11.297464 -2.897757 12.058414 41.771099 3041.746094
[L_Toe1_01]
6 -188.216690 -224.732346 -21.137953 94.621361 -20.846258 178.389069 293.899567
7 -188.216690 -224.732346 -21.137953 94.621361 -20.846252 178.389069 293.899567
[L_Toe2_01]
6 200.746536 -219.926590 148.838394 -103.114754 -23.047394 -32.408371 332.896027
7 200.746536 -219.926590 148.838394 -103.114754 -23.047394 -32.408371 332.896027
[L_Toe3_01]
6 188.832520 -219.859131 -191.078659 -105.774963 27.009619 -55.716057 347.140900
7 188.832520 -219.859131 -191.078659 -105.774971 27.009623 -55.716064 347.140900
[planeAlignerLeft]
6 0.812531 -811.448792 -0.314951 0.000000 -90.000000 -90.001900 811.449280
7 0.812531 -811.448792 -0.314951 0.000000 -90.000000 -90.001900 811.449280
[L_Toe1_02]
6 413.761139 0.000477 0.000000 0.001661 0.070897 0.001661 413.761139
7 413.761139 0.000477 0.000000 0.001661 0.070897 0.001661 413.761139
[L_Toe1_03]
6 464.317322 0.000358 -0.000089 0.001673 -0.448396 -0.003292 464.317322
7 464.317322 0.000358 -0.000089 0.001673 -0.448396 -0.003292 464.317322
[L_Toe2_02]
6 342.235809 -0.000477 0.000238 0.001179 -79.361282 0.001179 342.235809
7 342.235809 -0.000477 0.000238 0.001179 -79.356728 0.001179 342.235809
[L_Toe2_03]
6 420.210846 -0.000715 0.000000 -179.998642 68.908218 -179.995087 420.210846
7 420.210846 -0.000715 0.000000 -179.998642 68.908218 -179.995087 420.210846
[L_Toe3_02]
6 329.270111 0.000954 0.000000 0.004675 -84.753540 0.004675 329.270111
7 329.270111 0.000954 0.000000 0.004675 -84.750214 0.004675 329.270111
[L_Toe3_03]
6 439.137451 -0.001907 0.000954 179.993240 43.140903 -179.999146 439.137451
7 439.137451 -0.001907 0.000954 179.993240 43.140900 -179.999146 439.137451
[planeLockWeightLeft]
6 -0.000954 0.000238 -0.000305 -0.011826 -0.004376 0.005620 0.001029
7 -0.000954 0.000238 -0.000305 -0.011826 -0.004376 0.005620 0.001029
[R_Leg01]
6 761.455627 -0.001907 -0.000358 127.418617 -51.069290 11.571332 761.455688
7 761.455627 -0.001907 -0.000358 121.695900 -47.758507 18.739559 761.455688
[R_Leg02]
6 1441.140625 0.000000 -0.000238 1.223429 -0.370749 -98.509422 1441.140625
7 1441.140625 0.000000 -0.000238 1.230319 -0.379169 -98.326523 1441.140625
[R_Leg03]
6 1686.963989 0.000954 0.001431 -0.028551 0.006723 102.806038 1686.963989
7 1686.963989 0.000954 0.001431 -0.028571 0.006637 102.463905 1686.963989
[R_Foot]
6 3041.560059 -30.531288 -11.204481 5.620818 -31.306511 33.870632 3041.734131
7 3041.560059 -30.531288 -11.204481 6.006644 -31.261917 33.076244 3041.734131
[planeAlignerRight]
6 -0.635147 -812.270569 -0.364304 0.000000 -89.960434 -90.005180 812.270874
7 -0.635147 -812.270569 -0.364304 0.000000 -89.960434 -90.005180 812.270874
[R_Toe1_01]
6 -188.383347 -224.864899 21.052242 78.327164 0.810639 -176.062744 294.101532
7 -188.383347 -224.864899 21.052242 78.327164 0.810639 -176.062744 294.101532
[R_Toe2_01]
6 200.637817 -220.002121 -148.787384 -97.239944 44.898392 -40.725193 332.857574
7 200.637817 -220.002121 -148.787384 -94.913536 45.204365 -40.768375 332.857574
[R_Toe3_01]
6 188.606735 -220.092957 191.126343 -77.777176 -16.659964 -55.221577 347.192566
7 188.606735 -220.092957 191.126343 -77.777176 -16.659966 -55.221592 347.192566
[planeLockWeightRight]
6 -0.000477 0.000000 0.000000 -0.011823 -0.004379 -0.000027 0.000477
7 -0.000477 0.000000 0.000000 -0.011823 -0.004379 -0.000027 0.000477
[R_Toe1_02]
6 413.762085 0.000477 -0.000119 0.001534 -9.822226 0.001534 413.762085
7 413.762085 0.000477 -0.000119 0.001534 -9.822032 0.001534 413.762085
[R_Toe1_03]
6 464.317810 0.000000 0.001088 0.001388 9.999302 -0.003176 464.317810
7 464.317810 0.000000 0.001088 0.001388 9.999112 -0.003176 464.317810
[R_Toe2_02]
6 342.234741 -0.000954 0.000238 -0.002332 -79.833969 -0.002332 342.234741
7 342.234741 -0.000954 0.000238 -0.002332 -79.833969 -0.002332 342.234741
[R_Toe2_03]
6 420.210846 0.000715 -0.000268 -179.995636 64.198967 -179.999222 420.210846
7 420.210846 0.000715 -0.000268 -179.995636 64.198975 -179.999222 420.210846
[R_Toe3_02]
6 329.270355 -0.000477 -0.000954 0.001175 -84.689346 0.001175 329.270355
7 329.270355 -0.000477 -0.000954 0.001175 -84.687393 0.001175 329.270355
[R_Toe3_03]
6 439.137939 0.000238 0.001431 -179.997650 45.533459 -179.990097 439.137939
7 439.137939 0.000238 0.001431 -179.997650 45.533459 -179.990097 439.137939
[Rear_Leg02]
6 1162.777710 -0.029802 0.005960 1.065640 -2.831998 -90.370689 1162.777710
7 1162.777710 -0.029802 0.005960 1.558998 -2.588495 -100.870605 1162.777710
[Rear_Leg03]
6 607.192505 -0.013351 -0.073195 0.010495 -0.005100 68.190041 607.192505
7 607.192505 -0.013351 -0.073195 0.010336 -0.005415 71.660156 607.192505
[Rear_Leg04]
6 995.874512 -0.020504 -0.011921 -0.040044 -0.019118 66.319031 995.874573
7 995.874512 -0.020504 -0.011921 -0.041287 -0.016261 74.367561 995.874573
[Rear_Foot]
6 3096.176270 -0.067472 -0.041425 -26.354122 83.205406 140.180817 3096.176270
7 3096.176270 -0.067472 -0.041425 -24.410666 82.693336 140.761139 3096.176270
[planeAlignerCenter]
6 0.350077 0.966311 -838.790894 0.000009 0.000003 -179.999985 838.791565
7 0.350077 0.966311 -838.790894 0.000009 0.000003 -179.999985 838.791565
[Rear_Toe1_01]
6 0.653352 83.966492 -371.173737 0.719715 22.894396 102.798065 380.553192
7 0.653352 83.966492 -371.173737 0.722702 22.892193 102.902390 380.553192
[Rear_Toe2_01]
6 178.200760 -294.826019 -362.060547 -8.903860 20.707941 -52.394131 499.765686
7 178.200760 -294.826019 -362.060547 -8.904442 20.711721 -52.260986 499.765686
[Rear_Toe3_01]
6 -153.359680 -308.780914 -362.060852 3.937988 20.116774 -97.454498 499.952881
7 -153.359680 -308.780914 -362.060852 3.931384 20.117691 -97.329239 499.952881
[planeLockWeightCenter]
6 -0.000062 0.000238 0.000000 -0.011814 -0.004373 -0.000015 0.000246
7 -0.000062 0.000238 0.000000 -0.011814 -0.004373 -0.000015 0.000246
[Rear_Toe1_02]
6 379.707825 0.194073 0.000477 -0.002640 -33.277428 -0.002640 379.707855
7 379.707825 0.194073 0.000477 -0.002640 -33.276756 -0.002640 379.707855
[Rear_Toe1_03]
6 500.129700 0.165701 0.000119 -0.008828 83.771057 -0.012329 500.129761
7 500.129700 0.165701 0.000119 -0.008833 83.774361 -0.012335 500.129761
[Rear_Toe2_02]
6 340.494507 0.000238 -0.000954 0.001189 -71.601151 0.001189 340.494507
7 340.494507 0.000238 -0.000954 0.001189 -71.649422 0.001189 340.494507
[Rear_Toe2_03]
6 433.103577 0.000000 0.000238 0.007778 72.643295 0.007778 433.103546
7 433.103577 0.000000 0.000238 0.007772 72.628960 0.007772 433.103546
[Rear_Toe3_02]
6 340.494141 -0.000358 -0.000477 0.008170 -66.966080 -0.009343 340.494171
7 340.494141 -0.000358 -0.000477 0.008182 -66.998718 -0.009355 340.494171
[Rear_Toe3_03]
6 433.103577 0.001431 -0.000238 -0.000927 65.564484 -0.004505 433.103546
7 433.103577 0.001431 -0.000238 -0.000915 65.458565 -0.004493 433.103546
[Back_Bone]
6 1312.175781 -701.934692 0.000954 6.400895 2.518605 -84.452682 1488.125488
7 1312.175781 -701.934692 0.000954 4.242152 2.141250 -94.168549 1488.125488
[Head]
6 1406.159424 809.709290 0.001431 17.513191 -0.308291 18.505009 1622.625488
7 1406.159424 809.709290 0.001431 16.232672 0.220446 14.030995 1622.625488
[Motor_Bone]
6 1158.364380 -417.834747 0.000477 -0.000105 0.000046 -105.985291 1231.419434
7 1158.364380 -417.834747 0.000477 -0.000105 0.000046 -105.985291 1231.419434
[Ping_Mechanism]
6 1325.984497 -480.713501 8.098598 0.000103 -0.000053 82.120995 1410.455933
7 1299.722412 -453.227509 -1.948406 0.000103 -0.000053 82.120995 1376.480103
[BN_LookIK]
6 193.241119 1380.371704 -0.002861 0.000000 89.965736 -31.038179 1393.832153
7 193.241119 1380.371704 -0.002861 0.000000 89.965736 -31.038179 1393.832153
[bottomMouth]
6 -435.092926 615.759399 -0.000954 -0.000022 0.000016 73.527184 753.966492
7 -435.092926 615.759399 -0.000954 -0.000022 0.000016 73.527184 753.966492
[L_Mouth01]
6 554.440979 7.658243 838.222046 150.204178 23.759130 109.605339 1005.027161
7 554.440979 7.658243 838.222046 150.204178 23.759130 109.605339 1005.027161
[L_mouthFront]
6 551.629089 934.514771 339.150421 0.000081 2.804060 79.119301 1136.941284
7 551.629089 934.514771 339.150421 0.000081 2.804060 79.119301 1136.941284
[mouthGun]
6 55.332661 1627.420898 0.000000 0.000023 0.000009 -11.038128 1628.361328
7 55.332661 1627.420898 0.000000 0.000023 0.000009 -11.038128 1628.361328
[R_Mouth01]
6 554.442383 7.659197 -838.223938 29.795891 -23.759109 109.605331 1005.029541
7 554.442383 7.659197 -838.223938 29.795891 -23.759109 109.605331 1005.029541
[R_mouthFront]
6 551.629089 934.514282 -339.151367 0.000029 -2.803930 79.119133 1136.941162
7 551.629089 934.514282 -339.151367 0.000029 -2.803930 79.119133 1136.941162
[TopMouth]
6 461.269867 -56.106091 -0.008583 -0.000059 -0.000268 92.025169 464.669525
7 461.269867 -56.106091 -0.008583 -0.000059 -0.000268 92.025169 464.669525
[weapon_bone]
6 -987.239868 1448.372803 0.001431 0.000000 89.965736 -31.038221 1752.833740
7 -987.239868 1448.372803 0.001431 0.000000 89.965736 -31.038221 1752.833740
